<svg width="178" height="48" viewBox="0 0 178 48" fill="none" xmlns="http://www.w3.org/2000/svg">
<path d="M48.8678 14.9495C46.2247 12.3949 42.9877 11.0972 39.2431 11.0972C35.4985 11.0972 32.284 12.3912 29.6447 14.9495C27.0092 17.5004 25.6708 20.6186 25.6708 24.2225C25.6708 27.8264 27.0092 30.9445 29.6447 33.4954C32.284 36.05 35.5135 37.344 39.2431 37.344C42.9727 37.344 46.2285 36.05 48.8678 33.4954C51.5033 30.9445 52.8417 27.8226 52.8417 24.2225C52.8417 20.6223 51.5033 17.5004 48.8678 14.9495ZM39.2544 31.8047C35.0097 31.8047 31.5659 28.4085 31.5659 24.2187C31.5659 20.029 35.0097 16.6365 39.2544 16.6365C43.499 16.6365 46.9428 20.0327 46.9428 24.2187C46.9428 28.4048 43.499 31.8047 39.2544 31.8047Z" fill="#ED32D1"/>
<path d="M39.3108 47.9147C35.2955 47.9147 32.0058 46.0127 29.6222 44.3405V38.2821L29.6372 38.271C29.6748 38.3229 33.5848 42.5904 39.3108 42.5904C45.0367 42.5904 48.379 38.6603 48.6271 38.3192V44.4962C46.3262 46.1091 43.1832 47.911 39.3108 47.911V47.9147Z" fill="#ED32D1"/>
<path d="M37.6603 28.1823C37.8558 28.3751 38.1829 28.3751 38.3896 28.1823L43.0516 24.749C43.2546 24.5525 43.2546 24.2373 43.0516 24.026L38.3896 20.6C38.1829 20.4072 37.8595 20.4072 37.6603 20.6C37.6603 20.6 37.5362 20.7224 37.5362 21.0153V27.7411C37.5362 27.7411 37.5099 28.0155 37.6603 28.1823Z" fill="#ED32D1"/>
<path d="M19.3471 30.114C19.2155 29.9731 19.0802 29.9101 18.9072 29.8916C18.7343 29.873 18.5651 29.9101 18.4072 30.0139C16.892 30.9927 15.3431 31.4859 13.8016 31.4859C11.9406 31.4859 10.2939 30.7666 8.91034 29.3428C7.53431 27.9116 6.83878 26.1838 6.83878 24.2076C6.83878 22.2314 7.53431 20.4999 8.90658 19.0539C10.2976 17.6265 11.9406 16.9035 13.8016 16.9035C15.3393 16.9035 16.8845 17.404 18.3959 18.394C18.5538 18.4829 18.723 18.5163 18.9072 18.4978C19.0914 18.4792 19.2456 18.4125 19.3884 18.2864L22.2871 15.298C22.4638 15.1349 22.4826 15.0051 22.4789 14.8976C22.4751 14.7715 22.4375 14.6047 22.2232 14.4193C19.7945 12.38 16.7229 11.3419 13.0986 11.3419C9.47428 11.3419 6.40266 12.6099 3.84611 15.1126C1.29331 17.6153 0 20.6742 0 24.2076C0 27.7411 1.29331 30.7999 3.84611 33.3026C6.3989 35.8054 9.51188 37.0734 13.0986 37.0734C16.6853 37.0734 19.8885 35.9129 22.4563 33.6289C22.4826 33.5918 22.4901 33.5511 22.4826 33.4806C22.4676 33.3546 22.4112 33.2433 22.3022 33.1284L19.3471 30.114Z" fill="#2C3AF1"/>
<path d="M79.6253 14.0374C77.5839 12.2466 75.2153 11.3419 72.5798 11.3419C69.9443 11.3419 68.0043 12.165 66.2373 13.8631L65.0154 15.0311V12.3281C65.0154 12.1502 64.9628 12.013 64.8462 11.8869C64.7221 11.7572 64.6018 11.7015 64.4327 11.7015H56.9397C56.857 11.7015 56.8156 11.7201 56.7592 11.7831L56.7179 11.8276C56.654 11.8906 56.6427 11.9351 56.6427 11.9907C56.6427 12.0834 56.6577 12.1279 56.7555 12.191L56.8758 12.2874L57.1878 12.5951C57.8232 13.1772 58.1541 13.9299 58.1541 14.816V35.987C58.1541 36.228 58.2368 36.3393 58.3082 36.4097C58.4323 36.5321 58.5714 36.5877 58.7631 36.5877H64.4327C64.6094 36.5877 64.7372 36.5358 64.8613 36.4097C64.9327 36.3393 65.0154 36.228 65.0154 35.987V22.3093C65.0154 20.841 65.5493 19.5582 66.602 18.5015C67.6622 17.4559 68.9442 16.9294 70.418 16.9294C71.8918 16.9294 73.2001 17.4559 74.2566 18.4978C75.298 19.5656 75.8206 20.841 75.8206 22.3093V35.987C75.8206 36.1613 75.8695 36.2725 75.9898 36.3763L76.0424 36.4245C76.1477 36.5395 76.2605 36.584 76.4296 36.584H82.1029C82.2909 36.584 82.4338 36.5284 82.5579 36.406C82.6293 36.3356 82.712 36.2243 82.712 35.9833V20.385C82.712 17.9231 81.7007 15.8468 79.6253 14.0374Z" fill="#2C3AF1"/>
<path d="M160.48 11.7275H156.251V8.50548C156.251 7.73799 156.517 7.0706 157.048 6.52557C157.611 5.96941 158.273 5.69133 159.025 5.69133H159.781C159.954 5.69133 160.082 5.63942 160.209 5.51336C160.333 5.3873 160.39 5.26124 160.39 5.09068V0.600649C160.39 0.430094 160.337 0.300324 160.209 0.17797C160.082 0.0556156 159.954 0 159.781 0H158.792C156.168 0 153.976 0.852773 152.104 2.60281C150.261 4.34173 149.363 6.37355 149.363 8.81322V11.7275H146.171C145.99 11.7275 145.851 11.7794 145.724 11.898C145.614 12.0056 145.562 12.1316 145.562 12.3022V16.7922C145.562 16.9628 145.614 17.0888 145.742 17.2149C145.87 17.3372 145.998 17.3929 146.171 17.3929H149.363V35.987C149.363 36.1613 149.415 36.2873 149.543 36.4097C149.667 36.5358 149.799 36.5877 149.972 36.5877H155.645C155.818 36.5877 155.946 36.5358 156.074 36.4097C156.198 36.2873 156.254 36.1576 156.254 35.987V17.3929H160.484C160.657 17.3929 160.785 17.341 160.912 17.2149C161.04 17.0888 161.093 16.9628 161.093 16.7922V12.3022C161.093 12.1316 161.04 12.0019 160.912 11.8795C160.803 11.7794 160.664 11.7275 160.484 11.7275H160.48Z" fill="#2C3AF1"/>
<path d="M142.08 27.4556V12.9399C142.077 12.6989 141.998 12.5877 141.926 12.5172C141.806 12.3949 141.671 12.3393 141.486 12.3393H135.986C135.817 12.3393 135.693 12.3912 135.572 12.5172C135.505 12.5877 135.422 12.6989 135.422 12.9399V26.2617C135.422 27.73 134.907 29.0128 133.884 30.0695C132.854 31.1151 131.614 31.6416 130.181 31.6416C128.749 31.6416 127.482 31.1151 126.455 30.0732C125.448 29.0054 124.94 27.73 124.94 26.2617V12.9399C124.94 12.7657 124.891 12.6544 124.775 12.5506L124.726 12.5024C124.621 12.3875 124.512 12.343 124.35 12.343H121.357H117.049C116.966 12.343 116.921 12.3615 116.868 12.4245L116.827 12.469C116.763 12.5321 116.752 12.5766 116.752 12.6359C116.752 12.7286 116.771 12.7731 116.865 12.8361L116.985 12.9325L117.297 13.2402C117.929 13.8223 118.263 14.575 118.263 15.4612V28.1934C118.263 29.962 118.771 31.5304 119.805 32.9467C120.316 33.8143 120.981 34.5596 121.801 35.175C122.421 35.6348 123.128 36.013 123.906 36.3207C125.207 36.9288 126.606 37.2365 128.091 37.2365C128.44 37.2365 128.775 37.2365 129.095 37.2291C129.211 37.2291 129.32 37.2365 129.441 37.2365C131.805 37.2365 133.794 36.8658 135.418 36.1316V38.245C135.332 39.0088 135.035 39.691 134.516 40.2917C133.907 40.9887 133.163 41.3706 132.29 41.4411H128.538C128.245 41.4411 127.997 41.5412 127.79 41.7488C127.583 41.9527 127.478 42.2012 127.478 42.4866V46.9619C127.478 47.2511 127.583 47.4958 127.79 47.6997C127.997 47.9036 128.245 48.0074 128.538 48.0074H132.144C133.715 48.0074 135.084 47.759 136.253 47.2659C137.279 46.9581 138.185 46.5318 138.956 45.983C141.035 44.4777 142.077 42.1455 142.092 38.9792V27.489C142.092 27.489 142.092 27.4704 142.092 27.463L142.08 27.4556Z" fill="#2C3AF1"/>
<path d="M174.143 36.977C174.364 36.9881 174.594 36.9955 174.823 36.9955C175.601 37.0029 176.38 36.9992 177.158 36.9955C177.372 36.9955 177.59 36.9955 177.805 36.9955C177.914 36.9955 178 36.9066 178 36.8027V30.4811C178 30.3736 177.91 30.2883 177.805 30.2883C176.921 30.2846 176.034 30.266 175.15 30.2735C173.902 30.2846 172.797 28.8719 172.455 27.8041C172.15 26.8512 172.022 24.9974 171.988 24.4264L171.981 24.2521H172.112L171.981 24.2447C171.985 24.0186 171.996 0.96031 171.996 0.726724C171.996 0.593247 171.958 0.504262 171.861 0.407861C171.763 0.311461 171.673 0.274384 171.537 0.274384H163.747L163.702 0.300338L163.634 0.374492V0.418984C163.634 0.418984 163.649 0.4264 163.665 0.437523L163.8 0.541339L164.127 0.860202C164.77 1.44973 165.112 2.2061 165.138 3.09595V3.25167C165.127 3.75221 165.135 4.3232 165.138 4.998V5.15744L165.142 26.8364C165.146 27.0329 165.153 27.2294 165.161 27.4259C165.244 29.543 165.71 31.738 166.999 33.4769C168.172 35.0638 169.887 36.0983 171.793 36.6211C172.579 36.8361 173.349 36.9325 174.143 36.9696V36.977Z" fill="#2C3AF1"/>
<path d="M109.033 14.8716C106.529 12.532 103.465 11.3456 99.9236 11.3456C96.382 11.3456 93.4307 12.6136 90.9118 15.1126C88.374 17.6301 87.0882 20.6927 87.0882 24.2113C87.0882 27.7299 88.4079 30.7777 91.0133 33.3323C93.5661 35.835 96.5663 37.103 99.9274 37.103C103.954 37.103 107.36 35.9574 110.052 33.6994C110.191 33.5548 110.259 33.3953 110.266 33.1877C110.266 32.9875 110.199 32.8132 110.045 32.6501L107.469 29.9583C107.308 29.7914 107.142 29.6913 106.958 29.6505C106.943 29.6505 106.905 29.6431 106.871 29.6431C106.796 29.6431 106.732 29.658 106.65 29.7395C106.65 29.7395 106.642 29.7432 106.631 29.7506L106.616 29.7284C106.484 29.8137 106.349 29.9064 106.202 30.0102C105.334 30.622 104.025 31.5415 100.841 31.5415C97.6566 31.5415 94.4872 29.2279 93.5586 25.9095H112.255C112.447 25.9095 112.586 25.8538 112.71 25.7315C112.834 25.6091 112.891 25.472 112.891 25.2829V23.7182C112.891 20.1773 111.627 17.2816 109.029 14.8679L109.033 14.8716ZM93.7465 21.4528C94.7241 18.583 97.243 16.6031 100.127 16.6031C103.01 16.6031 105.525 18.5793 106.503 21.4528H93.7465Z" fill="#2C3AF1"/>
</svg>
