<svg width="22" height="22" viewBox="0 0 22 22" fill="none" xmlns="http://www.w3.org/2000/svg">
<mask id="mask0_512_4911" style="mask-type:alpha" maskUnits="userSpaceOnUse" x="0" y="0" width="22" height="22">
<rect width="22" height="22" fill="#D9D9D9"/>
</mask>
<g mask="url(#mask0_512_4911)">
<path d="M5.36242 15.6752C6.14159 15.0793 7.01242 14.6095 7.97492 14.2658C8.93742 13.922 9.94575 13.7502 10.9999 13.7502C12.0541 13.7502 13.0624 13.922 14.0249 14.2658C14.9874 14.6095 15.8583 15.0793 16.6374 15.6752C17.1721 15.0488 17.5885 14.3384 17.8864 13.5439C18.1843 12.7495 18.3333 11.9016 18.3333 11.0002C18.3333 8.96822 17.619 7.23801 16.1905 5.80954C14.7621 4.38107 13.0319 3.66683 10.9999 3.66683C8.96797 3.66683 7.23777 4.38107 5.80929 5.80954C4.38082 7.23801 3.66659 8.96822 3.66659 11.0002C3.66659 11.9016 3.81554 12.7495 4.11346 13.5439C4.41138 14.3384 4.8277 15.0488 5.36242 15.6752ZM10.9999 11.9168C10.0985 11.9168 9.33846 11.6075 8.71971 10.9887C8.10096 10.37 7.79159 9.60989 7.79159 8.7085C7.79159 7.80711 8.10096 7.04704 8.71971 6.42829C9.33846 5.80954 10.0985 5.50016 10.9999 5.50016C11.9013 5.50016 12.6614 5.80954 13.2801 6.42829C13.8989 7.04704 14.2083 7.80711 14.2083 8.7085C14.2083 9.60989 13.8989 10.37 13.2801 10.9887C12.6614 11.6075 11.9013 11.9168 10.9999 11.9168ZM10.9999 20.1668C9.73186 20.1668 8.5402 19.9262 7.42492 19.445C6.30964 18.9637 5.3395 18.3106 4.5145 17.4856C3.6895 16.6606 3.03638 15.6904 2.55513 14.5752C2.07388 13.4599 1.83325 12.2682 1.83325 11.0002C1.83325 9.73211 2.07388 8.54044 2.55513 7.42516C3.03638 6.30989 3.6895 5.33975 4.5145 4.51475C5.3395 3.68975 6.30964 3.03662 7.42492 2.55537C8.5402 2.07412 9.73186 1.8335 10.9999 1.8335C12.268 1.8335 13.4596 2.07412 14.5749 2.55537C15.6902 3.03662 16.6603 3.68975 17.4853 4.51475C18.3103 5.33975 18.9635 6.30989 19.4447 7.42516C19.926 8.54044 20.1666 9.73211 20.1666 11.0002C20.1666 12.2682 19.926 13.4599 19.4447 14.5752C18.9635 15.6904 18.3103 16.6606 17.4853 17.4856C16.6603 18.3106 15.6902 18.9637 14.5749 19.445C13.4596 19.9262 12.268 20.1668 10.9999 20.1668ZM10.9999 18.3335C11.8096 18.3335 12.5735 18.2151 13.2916 17.9783C14.0096 17.7415 14.6666 17.4016 15.2624 16.9585C14.6666 16.5154 14.0096 16.1755 13.2916 15.9387C12.5735 15.7019 11.8096 15.5835 10.9999 15.5835C10.1902 15.5835 9.42631 15.7019 8.70825 15.9387C7.9902 16.1755 7.33325 16.5154 6.73742 16.9585C7.33325 17.4016 7.9902 17.7415 8.70825 17.9783C9.42631 18.2151 10.1902 18.3335 10.9999 18.3335ZM10.9999 10.0835C11.3971 10.0835 11.7256 9.95364 11.9853 9.69391C12.2451 9.43419 12.3749 9.10572 12.3749 8.7085C12.3749 8.31127 12.2451 7.9828 11.9853 7.72308C11.7256 7.46336 11.3971 7.3335 10.9999 7.3335C10.6027 7.3335 10.2742 7.46336 10.0145 7.72308C9.75478 7.9828 9.62492 8.31127 9.62492 8.7085C9.62492 9.10572 9.75478 9.43419 10.0145 9.69391C10.2742 9.95364 10.6027 10.0835 10.9999 10.0835Z" fill="white"/>
</g>
</svg>
